:SAMPLES-PER-SECOND 30
:FULLY-SPECIFIED
:DEGREES
618
root  12.4575 39.9384 -1.67147 -175.793 -80.8701 169.666
RightUpLeg  -6.93819 -6.20161 -11.8285
RightLeg  53.8172 -1.50583 -2.61873
RightFoot  5.50465 -1.72981 11.9008
RightToes  -5.8209e-011 0 -3.6325e-017
Spine  6.12627 0.719883 2.66605
Spine1  8.07549 1.53467 -3.55101
HEad  55.4808 2.59321 -176.135
LeftShoulder1  8.10097 -11.1998 -48.0816
LeftArm  -13.7205 23.1293 -27.9057
LeftForeArm  22.4367 -19.1104 -3.53813
LeftHand  -0.244104 0.0205437 5.32207
RightShoulder  6.03676 9.27288 41.0479
RightArm  -1.72166 -13.3155 35.0233
RightForeArm  10.7035 18.9689 4.77137
RightHand  -0.580804 0.228873 -12.0616
LeftUpLeg  -7.9425 7.2576 -2.74317
LeftLeg  10.2934 15.2565 -3.45467
LeftFoot  1.75717 -1.16268 10.0082
LeftToes  1.76439e-010 -1.07097e-011 2.32476e-011
619
root  11.99 40.1042 -1.72962 -179.726 -81.2377 173.86
RightUpLeg  -9.75553 -5.50301 -10.7332
RightLeg  52.854 -2.64022 -4.10921
RightFoot  2.16371 -1.26872 10.7894
RightToes  -5.8209e-011 0 -3.6325e-017
Spine  6.68043 0.0100113 2.49634
Spine1  7.82292 0.665905 -2.74929
HEad  56.3377 1.20219 -176.471
LeftShoulder1  8.05159 -11.1977 -47.7919
LeftArm  -14.1825 21.5991 -26.9089
LeftForeArm  23.9777 -21.4481 -3.52448
LeftHand  -0.244104 0.0205437 5.32207
RightShoulder  6.01225 9.22273 41.0412
RightArm  -2.07681 -13.4802 35.3999
RightForeArm  8.28927 20.5494 4.59413
RightHand  -0.624658 0.352858 -12.6944
LeftUpLeg  -6.89819 6.8384 -2.00744
LeftLeg  9.29639 15.2322 -3.67192
LeftFoot  1.78917 -1.16276 9.9814
LeftToes  1.76439e-010 -1.07097e-011 2.32476e-011
620
root  11.5865 40.2346 -1.80471 177.103 -81.4927 177.391
RightUpLeg  -11.7223 -4.7332 -9.6497
RightLeg  48.8162 -4.73569 -6.08669
RightFoot  -0.168313 -0.818807 8.33132
RightToes  -5.8209e-011 0 -3.6325e-017
Spine  7.2671 -0.450303 2.5238
Spine1  7.32198 0.150847 -2.53972
HEad  56.6755 0.333912 -176.451
LeftShoulder1  7.96568 -11.1527 -47.4213
LeftArm  -15.1677 20.0688 -25.5577
LeftForeArm  25.8168 -23.8545 -3.74382
LeftHand  -0.244104 0.0205437 5.32207
RightShoulder  5.96742 9.206 40.7682
RightArm  -2.62372 -14.006 35.7802
RightForeArm  5.4622 21.6484 4.6403
RightHand  -0.639609 0.407189 -12.8762
LeftUpLeg  -6.24792 6.2029 -1.37642
LeftLeg  8.59979 15.4746 -3.82998
LeftFoot  1.75396 -1.14991 9.89758
LeftToes  1.76439e-010 -1.07097e-011 2.32476e-011
621
root  11.2133 40.3113 -1.92673 175.674 -81.8174 179.125
RightUpLeg  -12.2061 -3.79462 -8.85222
RightLeg  41.6414 -7.1085 -6.99456
RightFoot  -2.73266 -0.532888 6.89661
RightToes  -5.8209e-011 0 -3.6325e-017
Spine  7.75374 -0.664317 2.20779
Spine1  6.91167 -0.131761 -2.46334
HEad  56.8304 0.0450663 -176.073
LeftShoulder1  7.87014 -11.092 -47.0401
LeftArm  -16.8429 18.6145 -24.0795
LeftForeArm  27.3615 -26.3913 -4.20476
LeftHand  -0.244104 0.0205437 5.32207
RightShoulder  5.97223 9.24672 40.6624
RightArm  -2.87908 -14.3888 35.4837
RightForeArm  4.76744 22.1769 4.66624
RightHand  -0.645908 0.530211 -12.742
LeftUpLeg  -5.813 5.71721 -0.9634
LeftLeg  8.40047 15.5074 -3.93905
LeftFoot  1.1591 -1.04012 9.40722
LeftToes  1.76439e-010 -1.07097e-011 2.32476e-011
622
root  10.8249 40.3512 -2.09618 175.418 -82.4333 179.661
RightUpLeg  -11.1653 -3.75146 -8.33406
RightLeg  31.2169 -7.93707 -5.46573
RightFoot  -5.30042 -0.446479 7.73747
RightToes  -5.8209e-011 0 -3.6325e-017
Spine  7.75034 -0.768506 1.5745
Spine1  6.89882 -0.34805 -2.20235
HEad  56.8784 0.351013 -175.599
LeftShoulder1  7.76655 -11.0413 -46.572
LeftArm  -18.7022 17.2902 -22.5923
LeftForeArm  28.1501 -28.8743 -4.71308
LeftHand  -0.244104 0.0205437 5.32207
RightShoulder  5.99199 9.29362 40.6464
RightArm  -3.22854 -14.4326 34.6327
RightForeArm  6.11812 21.9608 4.59466
RightHand  -0.642058 0.631251 -12.4625
LeftUpLeg  -5.38393 5.45238 -0.708417
LeftLeg  8.30074 15.1646 -4.08528
LeftFoot  0.480671 -0.923375 8.87256
LeftToes  1.76439e-010 -1.07097e-011 2.32476e-011
623
root  10.4089 40.3715 -2.30565 177.857 -83.3971 177.554
RightUpLeg  -9.34375 -5.47994 -8.0294
RightLeg  19.4445 -5.35906 -2.34043
RightFoot  -4.95376 -0.480554 8.04818
RightToes  -5.8209e-011 0 -3.6325e-017
Spine  7.07311 -0.839796 0.516322
Spine1  7.22045 -0.589426 -1.6512
HEad  56.6269 1.14386 -175.215
LeftShoulder1  7.56822 -10.9084 -45.7768
LeftArm  -19.9839 16.0608 -21.0594
LeftForeArm  28.7485 -30.8666 -5.13932
LeftHand  -0.244104 0.0205437 5.32207
RightShoulder  5.97127 9.30016 40.4712
RightArm  -4.09731 -14.3627 33.5758
RightForeArm  8.05149 21.0074 4.51997
RightHand  -0.638536 0.759761 -12.1479
LeftUpLeg  -4.96151 5.29624 -0.779122
LeftLeg  8.06986 14.4505 -4.30015
LeftFoot  0.0372305 -0.857425 8.58731
LeftToes  1.76439e-010 -1.07097e-011 2.32476e-011
624
root  9.98651 40.425 -2.52982 -176.54 -84.4669 172.27
RightUpLeg  -7.74492 -7.48105 -7.84104
RightLeg  10.7377 -1.28801 -0.183237
RightFoot  -1.13846 -0.523553 5.87025
RightToes  -5.8209e-011 0 -3.6325e-017
Spine  6.01864 -0.856317 -0.41115
Spine1  7.62801 -0.707295 -1.22376
HEad  55.9697 2.35119 -174.843
LeftShoulder1  7.18648 -10.6012 -44.3557
LeftArm  -19.7964 14.6162 -19.4041
LeftForeArm  29.9972 -31.6664 -5.25989
LeftHand  -0.244104 0.0205437 5.32207
RightShoulder  5.8718 9.19623 40.0915
RightArm  -5.78727 -14.3794 32.3127
RightForeArm  10.4031 19.5149 4.5089
RightHand  -0.661296 1.1634 -11.8357
LeftUpLeg  -4.24824 5.0518 -1.08198
LeftLeg  7.25115 13.5666 -4.62829
LeftFoot  -0.185249 -0.806763 8.25714
LeftToes  1.76439e-010 -1.07097e-011 2.32476e-011
625
root  9.58752 40.5329 -2.73224 -172.107 -85.1826 167.978
RightUpLeg  -6.8458 -7.24941 -7.67853
RightLeg  7.62077 0.210726 0.444337
RightFoot  2.41858 -0.373494 3.17973
RightToes  -5.8209e-011 0 -3.6325e-017
Spine  5.12621 -0.742288 -0.167211
Spine1  7.92086 -0.441607 -1.61899
HEad  55.0913 3.90152 -174.492
LeftShoulder1  6.65756 -10.1692 -42.275
LeftArm  -18.0637 12.7997 -17.6066
LeftForeArm  31.6225 -30.6959 -4.94395
LeftHand  -0.244104 0.0205437 5.32207
RightShoulder  5.64509 8.90827 39.3739
RightArm  -8.44227 -14.2956 30.6535
RightForeArm  13.4705 17.5278 4.50717
RightHand  -0.715395 1.88625 -11.5712
LeftUpLeg  -3.0751 4.77023 -1.16812
LeftLeg  5.89152 12.888 -4.90156
LeftFoot  -0.241196 -0.741847 7.63713
LeftToes  1.76439e-010 -1.07097e-011 2.32476e-011
626
root  9.22209 40.6238 -2.90304 -173.007 -85.3478 168.782
RightUpLeg  -6.01136 -6.97805 -7.36329
RightLeg  7.50212 0.406658 0.394459
RightFoot  3.29469 -0.28239 2.36614
RightToes  -5.8209e-011 0 -3.6325e-017
Spine  4.70509 -0.518007 1.09127
Spine1  7.95245 0.114374 -2.74354
HEad  54.2878 5.45704 -174.439
LeftShoulder1  6.09595 -9.70924 -39.879
LeftArm  -15.668 11.1033 -15.6556
LeftForeArm  31.8097 -28.0574 -4.33099
LeftHand  -0.244104 0.0205437 5.32207
RightShoulder  5.27192 8.47745 37.9558
RightArm  -11.7847 -13.7669 28.4199
RightForeArm  16.0335 15.0112 4.43239
RightHand  -0.765817 2.54856 -11.3835
LeftUpLeg  -1.98017 4.69196 -0.897787
LeftLeg  5.18215 12.6294 -4.78775
LeftFoot  -0.436095 -0.663497 6.96842
LeftToes  1.76439e-010 -1.07097e-011 2.32476e-011
627
root  8.88855 40.6751 -3.05322 -177.186 -85.1832 172.774
RightUpLeg  -4.71881 -7.3002 -7.25719
RightLeg  6.84224 0.323649 0.817899
RightFoot  2.95954 -0.326184 2.75902
RightToes  -5.8209e-011 0 -3.6325e-017
Spine  4.60355 -0.317673 2.18562
Spine1  7.74495 0.497367 -3.44837
HEad  53.6726 6.52692 -174.837
LeftShoulder1  5.54041 -9.19852 -37.4686
LeftArm  -13.5971 10.1683 -13.508
LeftForeArm  29.3603 -24.3977 -3.70374
LeftHand  -0.244104 0.0205437 5.32207
RightShoulder  4.80101 8.01307 35.7101
RightArm  -14.9557 -12.7165 25.4305
RightForeArm  16.2155 12.3515 4.21262
RightHand  -0.777432 2.78471 -11.2355
LeftUpLeg  -1.24472 4.78637 -0.46327
LeftLeg  5.32326 12.6223 -4.38976
LeftFoot  -0.849742 -0.596728 6.54858
LeftToes  1.76439e-010 -1.07097e-011 2.32476e-011
628
root  8.56757 40.7324 -3.20436 179.425 -85.0924 176.048
RightUpLeg  -3.40044 -7.86315 -7.29937
RightLeg  5.44364 0.544807 1.71452
RightFoot  3.15908 -0.3002 2.53223
RightToes  -5.8209e-011 0 -3.6325e-017
Spine  4.38853 -0.209057 2.42958
Spine1  7.52549 0.490535 -3.03709
HEad  53.1079 6.99185 -175.386
LeftShoulder1  4.95035 -8.56089 -34.9455
LeftArm  -12.571 9.90196 -11.1415
LeftForeArm  25.9675 -20.2665 -3.41685
LeftHand  -0.244104 0.0205437 5.32207
RightShoulder  4.27242 7.47809 32.9587
RightArm  -17.2838 -11.3607 21.7025
RightForeArm  13.9654 10.2357 3.89347
RightHand  -0.76264 2.7005 -11.1366
LeftUpLeg  -0.505562 4.86087 -0.0502572
LeftLeg  5.25233 12.5182 -4.11892
LeftFoot  -1.2399 -0.54685 6.26592
LeftToes  1.76439e-010 -1.07097e-011 2.32476e-011
629
root  8.23627 40.7963 -3.37624 177.938 -85.1571 177.539
RightUpLeg  -2.49186 -8.05812 -7.22444
RightLeg  4.68064 0.755063 2.27643
RightFoot  3.47473 -0.203763 1.74659
RightToes  -5.8209e-011 0 -3.6325e-017
Spine  3.79732 -0.107803 2.16311
Spine1  7.47634 0.388305 -2.23307
HEad  52.4018 7.22359 -175.6
LeftShoulder1  4.32675 -7.83553 -32.0908
LeftArm  -12.8893 9.71095 -8.53741
LeftForeArm  24.2871 -16.0372 -3.64506
LeftHand  -0.244104 0.0205437 5.32207
RightShoulder  3.67339 6.69447 30.0487
RightArm  -18.9499 -9.95505 17.6826
RightForeArm  10.935 8.95527 3.59045
RightHand  -0.754316 2.60603 -11.1428
LeftUpLeg  0.321718 4.85743 0.281641
LeftLeg  4.77012 12.3189 -4.04845
LeftFoot  -1.58439 -0.488999 5.83561
LeftToes  1.76439e-010 -1.07097e-011 2.32476e-011
